<?xml version="1.0" encoding="utf-8"?>
<!-- Generator: Adobe Illustrator 16.0.3, SVG Export Plug-In . SVG Version: 6.00 Build 0)  -->
<!DOCTYPE svg PUBLIC "-//W3C//DTD SVG 1.1//EN" "http://www.w3.org/Graphics/SVG/1.1/DTD/svg11.dtd">
<svg version="1.1" id="Layer_1" xmlns="http://www.w3.org/2000/svg" xmlns:xlink="http://www.w3.org/1999/xlink" x="0px" y="0px"
	 width="480.491px" height="77.76px" viewBox="0 0 480.491 77.76" enable-background="new 0 0 480.491 77.76" xml:space="preserve">
<g>
	<path fill="#333333" d="M36.72,77.76c-5.473,0-10.459-1.096-14.958-3.293c-4.5-2.195-8.37-5.111-11.61-8.748
		c-3.24-3.635-5.743-7.793-7.506-12.475C0.881,48.565,0,43.777,0,38.88c0-5.112,0.935-10.007,2.808-14.688
		c1.872-4.68,4.445-8.819,7.722-12.42c3.275-3.599,7.164-6.461,11.664-8.586C26.693,1.063,31.607,0,36.936,0
		c5.471,0,10.458,1.134,14.958,3.402c4.499,2.268,8.352,5.238,11.556,8.91c3.203,3.672,5.687,7.83,7.452,12.474
		c1.763,4.644,2.646,9.379,2.646,14.202c0,5.113-0.918,10.008-2.754,14.688c-1.836,4.682-4.411,8.803-7.722,12.366
		c-3.313,3.564-7.219,6.409-11.718,8.532C46.854,76.699,41.975,77.76,36.72,77.76z M12.312,38.88c0,3.601,0.576,7.092,1.728,10.476
		c1.151,3.385,2.79,6.372,4.914,8.964c2.123,2.592,4.698,4.662,7.722,6.21c3.024,1.549,6.407,2.321,10.152,2.321
		c3.888,0,7.326-0.81,10.314-2.43c2.987-1.619,5.525-3.762,7.614-6.426c2.087-2.662,3.672-5.651,4.752-8.964
		c1.08-3.311,1.62-6.696,1.62-10.152c0-3.672-0.577-7.182-1.728-10.53c-1.153-3.348-2.792-6.299-4.914-8.856
		c-2.125-2.555-4.681-4.607-7.668-6.156c-2.989-1.547-6.318-2.322-9.99-2.322c-3.888,0-7.344,0.81-10.368,2.43
		c-3.024,1.62-5.581,3.726-7.668,6.318c-2.089,2.592-3.69,5.562-4.806,8.91C12.869,32.022,12.312,35.424,12.312,38.88z"/>
	<path fill="#333333" d="M122.796,77.221V0.54h33.372c3.456,0,6.642,0.721,9.558,2.16c2.916,1.441,5.417,3.331,7.506,5.67
		c2.087,2.341,3.726,5.005,4.914,7.992c1.188,2.988,1.782,6.031,1.782,9.126c0,2.592-0.361,5.076-1.08,7.452
		c-0.72,2.376-1.728,4.573-3.024,6.588c-1.296,2.017-2.88,3.763-4.752,5.238c-1.873,1.477-3.925,2.575-6.156,3.294l18.036,29.161
		h-13.716l-16.632-26.676h-17.712v26.676H122.796z M134.892,39.852h21.168c1.728,0,3.294-0.378,4.698-1.134s2.609-1.799,3.618-3.132
		c1.007-1.332,1.799-2.862,2.376-4.59c0.575-1.728,0.864-3.564,0.864-5.508s-0.342-3.78-1.026-5.508
		c-0.685-1.728-1.584-3.24-2.7-4.536c-1.117-1.296-2.413-2.322-3.888-3.078c-1.477-0.756-3.007-1.134-4.59-1.134h-20.52V39.852z"/>
	<path fill="#333333" d="M230.904,77.221V0.54H243v76.681H230.904z"/>
	<path fill="#333333" d="M328.858,77.76c-5.473,0-10.459-1.096-14.958-3.293c-4.501-2.195-8.37-5.111-11.61-8.748
		c-3.239-3.635-5.742-7.793-7.506-12.475c-1.765-4.679-2.646-9.467-2.646-14.364c0-5.112,0.935-10.007,2.808-14.688
		c1.871-4.68,4.445-8.819,7.722-12.42c3.275-3.599,7.164-6.461,11.664-8.586C318.831,1.063,323.745,0,329.074,0
		c5.471,0,10.458,1.134,14.958,3.402c4.499,2.268,8.352,5.238,11.557,8.91c3.202,3.672,5.687,7.83,7.451,12.474
		c1.764,4.644,2.646,9.379,2.646,14.202c0,5.113-0.918,10.008-2.754,14.688c-1.836,4.682-4.411,8.803-7.723,12.366
		c-3.313,3.564-7.219,6.409-11.718,8.532C338.992,76.699,334.113,77.76,328.858,77.76z M304.45,38.88
		c0,3.601,0.575,7.092,1.729,10.476c1.15,3.385,2.789,6.372,4.914,8.964c2.122,2.592,4.697,4.662,7.722,6.21
		c3.024,1.549,6.407,2.321,10.152,2.321c3.888,0,7.325-0.81,10.313-2.43c2.987-1.619,5.525-3.762,7.614-6.426
		c2.087-2.662,3.672-5.651,4.752-8.964c1.08-3.311,1.62-6.696,1.62-10.152c0-3.672-0.577-7.182-1.729-10.53
		c-1.152-3.348-2.791-6.299-4.914-8.856c-2.124-2.555-4.681-4.607-7.668-6.156c-2.988-1.547-6.317-2.322-9.989-2.322
		c-3.889,0-7.345,0.81-10.368,2.43c-3.024,1.62-5.581,3.726-7.668,6.318c-2.09,2.592-3.69,5.562-4.807,8.91
		C305.006,32.022,304.45,35.424,304.45,38.88z"/>
	<path fill="#333333" d="M427.031,23.22v54h-12.097V0.54h9.504l43.849,55.296V0.648h12.204v76.572h-10.044L427.031,23.22z"/>
</g>
<g>
</g>
<g>
</g>
<g>
</g>
<g>
</g>
<g>
</g>
<g>
</g>
<g>
</g>
<g>
</g>
<g>
</g>
<g>
</g>
<g>
</g>
<g>
</g>
<g>
</g>
<g>
</g>
<g>
</g>
</svg>
